<svg xmlns="http://www.w3.org/2000/svg" version="1.1" xmlns:xlink="http://www.w3.org/1999/xlink"
    xmlns:svgjs="http://svgjs.dev/svgjs" width="150" viewBox="0 0 1500 1500">
    <g transform="matrix(1,0,0,1,0,0)"><svg viewBox="0 0 280 280" data-background-color="#000000"
            preserveAspectRatio="xMidYMid meet" height="1500" width="1500" xmlns="http://www.w3.org/2000/svg"
            xmlns:xlink="http://www.w3.org/1999/xlink">
            <g id="tight-bounds" transform="matrix(1,0,0,1,0,0)"><svg viewBox="0 0 280 280" height="280" width="280">
                    <g><svg viewBox="0 0 280 280" height="280" width="280">
                            <g><svg viewBox="0 0 280 280" height="280" width="280">
                                    <g id="textblocktransform"><svg viewBox="0 0 280 280" height="280" width="280"
                                            id="textblock">
                                            <g><svg viewBox="0 0 280 280" height="280" width="280">
                                                    <g transform="matrix(1,0,0,1,82.49972140048706,74.00336708925556)">
                                                        <svg viewBox="0 0 115.00055719902586 131.99326582148888"
                                                            height="131.99326582148888" width="115.00055719902586">
                                                            <g id="icon-0"><svg xmlns="http://www.w3.org/2000/svg"
                                                                    xmlns:xlink="http://www.w3.org/1999/xlink"
                                                                    version="1.1" x="0" y="0"
                                                                    viewBox="13.1 8 69.70086328771082 80"
                                                                    style="enable-background:new 0 0 96 96;"
                                                                    xml:space="preserve" height="131.99326582148888"
                                                                    width="115.00055719902586" className="icon-jxe-0"
                                                                    data-fill-palette-color="accent" id="jxe-0">
                                                                    <g fill="#000" data-fill-palette-color="accent">
                                                                        <path
                                                                            d="M48 43.3C57.7 43.3 65.7 35.4 65.7 25.6 65.7 15.9 57.7 8 48 8S30.3 15.9 30.3 25.7C30.3 35.4 38.3 43.3 48 43.3"
                                                                            fill="#000"
                                                                            data-fill-palette-color="accent"></path>
                                                                        <path
                                                                            d="M63.4 44.3C62.8 44.3 62.3 44.5 61.9 44.9 58.2 48.5 53.2 50.5 48 50.5S37.9 48.5 34.1 44.9C33.7 44.5 33.1 44.3 32.6 44.3 21.7 45.1 13.1 54.3 13.1 65.3V75C13.1 82.2 18.9 88 26.1 88H69.8C77 88 82.8 82.2 82.8 75V65.3C82.9 54.3 74.3 45.1 63.4 44.3M39.7 72.6C40.5 73.4 40.5 74.6 39.7 75.4 39.3 75.8 38.8 76 38.3 76S37.3 75.8 36.9 75.4L31.8 70.3C31 69.5 31 68.3 31.8 67.5L36.9 62.4C37.7 61.6 38.9 61.6 39.7 62.4S40.5 64.5 39.7 65.3L36 69zM53.1 59.6L47.5 79.5C47.3 80.4 46.5 81 45.6 81 45.5 81 45.3 81 45.1 80.9 44 80.6 43.4 79.5 43.7 78.4L49.3 58.5C49.6 57.4 50.7 56.8 51.8 57.1 52.8 57.4 53.4 58.5 53.1 59.6M64.2 70.4L59.1 75.5C58.7 75.9 58.2 76.1 57.7 76.1S56.7 75.9 56.3 75.5C55.5 74.7 55.5 73.5 56.3 72.7L60 69 56.3 65.2C55.5 64.4 55.5 63.2 56.3 62.4S58.3 61.6 59.1 62.4L64.2 67.6C65 68.4 65 69.6 64.2 70.4"
                                                                            fill="#000"
                                                                            data-fill-palette-color="accent"></path>
                                                                    </g>
                                                                </svg></g>
                                                        </svg></g>
                                                </svg></g>
                                        </svg></g>
                                </svg></g>
                            <g></g>
                        </svg></g>
                    <defs></defs>
                </svg>
                <rect width="280" height="280" fill="none" stroke="none" visibility="hidden"></rect>
            </g>
        </svg></g>
</svg>