<svg width="848" height="190" viewBox="0 0 848 190" fill="none" xmlns="http://www.w3.org/2000/svg">
<path d="M0.718865 57.2072H14.9916V58.6499H8.57653V79H7.07253V58.6499H0.718865V57.2072ZM19.4468 79V55.6725H20.8587V70.1908L20.7666 69.669C21.1759 68.83 21.8307 68.1241 22.731 67.5511C23.6519 66.9577 24.7057 66.661 25.8925 66.661C27.018 66.661 27.9286 66.9986 28.6243 67.6739C29.32 68.3287 29.6781 69.1881 29.6986 70.2522V79H28.2253V70.6512C28.2048 69.8736 27.9592 69.2291 27.4886 68.7175C27.018 68.2059 26.3325 67.9399 25.4321 67.9195C24.6341 67.9195 23.8872 68.1241 23.1914 68.5333C22.4957 68.9426 21.933 69.4951 21.5033 70.1908C21.094 70.8865 20.8894 71.6744 20.8894 72.5543V79H19.4468ZM40.3715 79.2456C39.1232 79.2456 38.0182 78.9693 37.0565 78.4168C36.0948 77.8643 35.3376 77.1174 34.7851 76.1762C34.2531 75.2144 33.9871 74.1401 33.9871 72.9533C33.9871 71.7869 34.2736 70.7228 34.8465 69.7611C35.4195 68.7994 36.1868 68.032 37.1486 67.459C38.1308 66.8861 39.2153 66.5996 40.4022 66.5996C41.8345 66.5996 43.0316 67.0191 43.9934 67.8581C44.9756 68.697 45.6815 69.7918 46.1112 71.1423L35.6139 75.1939L35.1842 74.1503L44.7914 70.4057L44.4845 70.8354C44.1366 70.0169 43.6046 69.3109 42.8884 68.7175C42.1926 68.1241 41.3332 67.8274 40.3101 67.8274C39.3892 67.8274 38.5605 68.0525 37.8239 68.5026C37.0872 68.9528 36.4938 69.5565 36.0436 70.3136C35.6139 71.0707 35.399 71.9301 35.399 72.8919C35.399 73.7922 35.6037 74.6312 36.0129 75.4088C36.4426 76.1864 37.036 76.8105 37.7932 77.2811C38.5503 77.7518 39.4199 77.9871 40.4022 77.9871C41.057 77.9871 41.6811 77.8643 42.2745 77.6188C42.8884 77.3732 43.4306 77.056 43.9013 76.6673L44.6379 77.7109C44.065 78.161 43.3999 78.5294 42.6428 78.8158C41.9062 79.1023 41.149 79.2456 40.3715 79.2456ZM52.9347 79.2456C52.2389 79.2456 51.5125 79.1228 50.7554 78.8772C49.9983 78.6112 49.3844 78.1917 48.9137 77.6188L49.589 76.6673C49.9983 77.097 50.4791 77.4448 51.0316 77.7109C51.6046 77.9564 52.2082 78.0792 52.8426 78.0792C53.3132 78.0792 53.7532 78.0178 54.1624 77.895C54.5921 77.7518 54.94 77.5165 55.206 77.1891C55.472 76.8617 55.605 76.4217 55.605 75.8692C55.605 75.2963 55.4413 74.8563 55.1139 74.5494C54.807 74.2424 54.408 73.9969 53.9169 73.8127C53.4462 73.6081 52.9449 73.4239 52.4129 73.2602C51.533 72.9737 50.8065 72.585 50.2336 72.0938C49.6811 71.6027 49.4048 70.907 49.4048 70.0067C49.4048 69.3518 49.5583 68.7789 49.8653 68.2878C50.1927 67.7967 50.6326 67.4181 51.1851 67.1521C51.7376 66.8656 52.3617 66.7224 53.0574 66.7224C53.6918 66.7224 54.3159 66.8247 54.9298 67.0293C55.5641 67.234 56.1371 67.5818 56.6486 68.0729L56.0041 69.0858C55.6767 68.6357 55.2367 68.3287 54.6842 68.165C54.1522 68.0013 53.6815 67.9092 53.2723 67.8888C52.9244 67.8888 52.5561 67.9604 52.1673 68.1036C51.799 68.2469 51.4818 68.4617 51.2158 68.7482C50.9702 69.0142 50.8475 69.3723 50.8475 69.8225C50.8475 70.2931 50.9805 70.6819 51.2465 70.9889C51.5125 71.2753 51.8501 71.5107 52.2594 71.6948C52.6891 71.879 53.1291 72.0529 53.5792 72.2166C54.1727 72.4008 54.7251 72.6259 55.2367 72.8919C55.7687 73.1374 56.1985 73.4751 56.5259 73.9048C56.8737 74.314 57.0477 74.8665 57.0477 75.5623C57.0477 76.258 56.8942 76.8923 56.5872 77.4653C56.2803 78.0178 55.8199 78.4577 55.206 78.7851C54.6126 79.0921 53.8555 79.2456 52.9347 79.2456ZM66.6292 79.2456C65.381 79.2456 64.276 78.9693 63.3143 78.4168C62.3525 77.8643 61.5954 77.1174 61.0429 76.1762C60.5109 75.2144 60.2449 74.1401 60.2449 72.9533C60.2449 71.7869 60.5314 70.7228 61.1043 69.7611C61.6773 68.7994 62.4446 68.032 63.4064 67.459C64.3886 66.8861 65.4731 66.5996 66.6599 66.5996C68.0923 66.5996 69.2894 67.0191 70.2511 67.8581C71.2333 68.697 71.9393 69.7918 72.369 71.1423L61.8717 75.1939L61.4419 74.1503L71.0492 70.4057L70.7422 70.8354C70.3944 70.0169 69.8623 69.3109 69.1461 68.7175C68.4504 68.1241 67.591 67.8274 66.5678 67.8274C65.647 67.8274 64.8183 68.0525 64.0816 68.5026C63.345 68.9528 62.7516 69.5565 62.3014 70.3136C61.8717 71.0707 61.6568 71.9301 61.6568 72.8919C61.6568 73.7922 61.8614 74.6312 62.2707 75.4088C62.7004 76.1864 63.2938 76.8105 64.0509 77.2811C64.808 77.7518 65.6777 77.9871 66.6599 77.9871C67.3147 77.9871 67.9388 77.8643 68.5323 77.6188C69.1461 77.3732 69.6884 77.056 70.159 76.6673L70.8957 77.7109C70.3227 78.161 69.6577 78.5294 68.9006 78.8158C68.1639 79.1023 67.4068 79.2456 66.6292 79.2456ZM90.753 79.2456C89.6071 79.2456 88.5635 78.9898 87.6223 78.4782C86.7014 77.9462 85.9648 77.2095 85.4123 76.2682C84.8803 75.3269 84.6142 74.2322 84.6142 72.984C84.6142 71.6539 84.9007 70.5182 85.4737 69.5769C86.0466 68.6152 86.8242 67.8888 87.8064 67.3977C88.7886 66.8861 89.9038 66.6303 91.1521 66.6303C92.2161 66.6303 93.2188 66.9475 94.1601 67.5818C95.1218 68.2162 95.8073 69.0142 96.2166 69.976L96.0017 70.4057L96.1859 66.9986H97.475V79H96.0324V75.286L96.3394 75.8385C96.1961 76.2478 95.9506 76.657 95.6027 77.0663C95.2548 77.4551 94.8251 77.8234 94.3135 78.1713C93.8224 78.4987 93.27 78.7647 92.6561 78.9693C92.0627 79.1535 91.4283 79.2456 90.753 79.2456ZM91.06 78.0178C91.9603 78.0178 92.7686 77.8336 93.4848 77.4653C94.2215 77.0765 94.8149 76.5445 95.2651 75.8692C95.7152 75.1939 95.971 74.4164 96.0324 73.5365V71.8176C95.8687 71.0605 95.5413 70.3852 95.0502 69.7918C94.5796 69.1984 93.9964 68.7277 93.3006 68.3799C92.6049 68.032 91.8478 67.8581 91.0293 67.8581C90.1289 67.8581 89.3002 68.0729 88.5431 68.5026C87.786 68.9119 87.1823 69.4951 86.7321 70.2522C86.2819 71.0093 86.0569 71.8995 86.0569 72.9226C86.0569 73.8639 86.2819 74.7233 86.7321 75.5009C87.1823 76.258 87.786 76.8719 88.5431 77.3425C89.3207 77.7927 90.1596 78.0178 91.06 78.0178ZM104.185 66.9986L104.338 70.6819L104.154 70.2215C104.42 69.4849 104.839 68.8505 105.412 68.3185C105.985 67.7865 106.62 67.3772 107.315 67.0907C108.032 66.8042 108.717 66.661 109.372 66.661L109.31 68.0729C108.39 68.0729 107.551 68.2776 106.794 68.6868C106.057 69.0961 105.463 69.6486 105.013 70.3443C104.584 71.0196 104.369 71.7869 104.369 72.6463V79H102.926V66.9986H104.185ZM118.156 79.2456C116.907 79.2456 115.802 78.9693 114.841 78.4168C113.879 77.8643 113.122 77.1174 112.569 76.1762C112.037 75.2144 111.771 74.1401 111.771 72.9533C111.771 71.7869 112.058 70.7228 112.631 69.7611C113.204 68.7994 113.971 68.032 114.933 67.459C115.915 66.8861 116.999 66.5996 118.186 66.5996C119.619 66.5996 120.816 67.0191 121.778 67.8581C122.76 68.697 123.466 69.7918 123.895 71.1423L113.398 75.1939L112.968 74.1503L122.576 70.4057L122.269 70.8354C121.921 70.0169 121.389 69.3109 120.673 68.7175C119.977 68.1241 119.117 67.8274 118.094 67.8274C117.173 67.8274 116.345 68.0525 115.608 68.5026C114.871 68.9528 114.278 69.5565 113.828 70.3136C113.398 71.0707 113.183 71.9301 113.183 72.8919C113.183 73.7922 113.388 74.6312 113.797 75.4088C114.227 76.1864 114.82 76.8105 115.577 77.2811C116.334 77.7518 117.204 77.9871 118.186 77.9871C118.841 77.9871 119.465 77.8643 120.059 77.6188C120.673 77.3732 121.215 77.056 121.685 76.6673L122.422 77.7109C121.849 78.161 121.184 78.5294 120.427 78.8158C119.69 79.1023 118.933 79.2456 118.156 79.2456ZM140.131 79.2456C139.435 79.2456 138.709 79.1228 137.952 78.8772C137.194 78.6112 136.581 78.1917 136.11 77.6188L136.785 76.6673C137.194 77.097 137.675 77.4448 138.228 77.7109C138.801 77.9564 139.404 78.0792 140.039 78.0792C140.509 78.0792 140.949 78.0178 141.359 77.895C141.788 77.7518 142.136 77.5165 142.402 77.1891C142.668 76.8617 142.801 76.4217 142.801 75.8692C142.801 75.2963 142.638 74.8563 142.31 74.5494C142.003 74.2424 141.604 73.9969 141.113 73.8127C140.642 73.6081 140.141 73.4239 139.609 73.2602C138.729 72.9737 138.003 72.585 137.43 72.0938C136.877 71.6027 136.601 70.907 136.601 70.0067C136.601 69.3518 136.755 68.7789 137.061 68.2878C137.389 67.7967 137.829 67.4181 138.381 67.1521C138.934 66.8656 139.558 66.7224 140.254 66.7224C140.888 66.7224 141.512 66.8247 142.126 67.0293C142.76 67.234 143.333 67.5818 143.845 68.0729L143.2 69.0858C142.873 68.6357 142.433 68.3287 141.88 68.165C141.348 68.0013 140.878 67.9092 140.468 67.8888C140.121 67.8888 139.752 67.9604 139.363 68.1036C138.995 68.2469 138.678 68.4617 138.412 68.7482C138.166 69.0142 138.044 69.3723 138.044 69.8225C138.044 70.2931 138.177 70.6819 138.443 70.9889C138.709 71.2753 139.046 71.5107 139.456 71.6948C139.885 71.879 140.325 72.0529 140.775 72.2166C141.369 72.4008 141.921 72.6259 142.433 72.8919C142.965 73.1374 143.395 73.4751 143.722 73.9048C144.07 74.314 144.244 74.8665 144.244 75.5623C144.244 76.258 144.09 76.8923 143.783 77.4653C143.476 78.0178 143.016 78.4577 142.402 78.7851C141.809 79.0921 141.052 79.2456 140.131 79.2456ZM147.441 72.9226C147.441 71.7562 147.717 70.6922 148.27 69.7304C148.843 68.7687 149.61 68.0115 150.572 67.459C151.554 66.8861 152.649 66.5996 153.856 66.5996C155.084 66.5996 156.179 66.8861 157.14 67.459C158.102 68.0115 158.859 68.7687 159.412 69.7304C159.964 70.6922 160.24 71.7562 160.24 72.9226C160.24 74.089 159.964 75.153 159.412 76.1148C158.859 77.0765 158.092 77.8439 157.11 78.4168C156.148 78.9693 155.063 79.2456 153.856 79.2456C152.628 79.2456 151.534 78.9795 150.572 78.4475C149.61 77.895 148.843 77.1481 148.27 76.2068C147.717 75.2451 147.441 74.1503 147.441 72.9226ZM148.884 72.9533C148.884 73.8946 149.099 74.754 149.528 75.5316C149.978 76.2887 150.572 76.8923 151.308 77.3425C152.066 77.7927 152.905 78.0178 153.825 78.0178C154.746 78.0178 155.575 77.7927 156.312 77.3425C157.069 76.8923 157.662 76.2887 158.092 75.5316C158.542 74.754 158.767 73.8946 158.767 72.9533C158.767 72.012 158.542 71.1628 158.092 70.4057C157.662 69.6281 157.069 69.0142 156.312 68.564C155.575 68.0934 154.746 67.8581 153.825 67.8581C152.884 67.8581 152.035 68.1036 151.278 68.5947C150.541 69.0654 149.958 69.6895 149.528 70.4671C149.099 71.2446 148.884 72.0734 148.884 72.9533ZM165.782 66.9986L165.936 70.3443L165.721 70.0373C166.13 68.9938 166.806 68.1752 167.747 67.5818C168.709 66.9679 169.752 66.661 170.878 66.661C171.553 66.661 172.157 66.794 172.689 67.06C173.241 67.3056 173.681 67.6534 174.008 68.1036C174.356 68.5333 174.561 69.0347 174.622 69.6076L174.438 69.7918C174.868 68.7687 175.543 67.9911 176.464 67.459C177.385 66.927 178.377 66.661 179.441 66.661C180.587 66.661 181.498 66.9986 182.173 67.6739C182.848 68.3287 183.196 69.1881 183.217 70.2522V79H181.774V70.5591C181.754 69.843 181.528 69.2393 181.099 68.7482C180.669 68.2366 180.014 67.9604 179.134 67.9195C178.336 67.9195 177.6 68.1241 176.924 68.5333C176.249 68.9426 175.697 69.4849 175.267 70.1601C174.858 70.8354 174.633 71.5925 174.592 72.4315V79H173.149V70.5591C173.129 69.843 172.893 69.2393 172.443 68.7482C172.013 68.2366 171.358 67.9604 170.479 67.9195C169.66 67.9195 168.903 68.1241 168.207 68.5333C167.532 68.9426 166.99 69.5053 166.58 70.2215C166.171 70.9172 165.967 71.6948 165.967 72.5543V79H164.524V66.9986H165.782ZM193.901 79.2456C192.653 79.2456 191.548 78.9693 190.587 78.4168C189.625 77.8643 188.868 77.1174 188.315 76.1762C187.783 75.2144 187.517 74.1401 187.517 72.9533C187.517 71.7869 187.804 70.7228 188.377 69.7611C188.95 68.7994 189.717 68.032 190.679 67.459C191.661 66.8861 192.745 66.5996 193.932 66.5996C195.365 66.5996 196.562 67.0191 197.523 67.8581C198.506 68.697 199.212 69.7918 199.641 71.1423L189.144 75.1939L188.714 74.1503L198.321 70.4057L198.014 70.8354C197.667 70.0169 197.135 69.3109 196.418 68.7175C195.723 68.1241 194.863 67.8274 193.84 67.8274C192.919 67.8274 192.091 68.0525 191.354 68.5026C190.617 68.9528 190.024 69.5565 189.574 70.3136C189.144 71.0707 188.929 71.9301 188.929 72.8919C188.929 73.7922 189.134 74.6312 189.543 75.4088C189.973 76.1864 190.566 76.8105 191.323 77.2811C192.08 77.7518 192.95 77.9871 193.932 77.9871C194.587 77.9871 195.211 77.8643 195.805 77.6188C196.418 77.3732 196.961 77.056 197.431 76.6673L198.168 77.7109C197.595 78.161 196.93 78.5294 196.173 78.8158C195.436 79.1023 194.679 79.2456 193.901 79.2456ZM211.887 72.9226C211.887 71.7562 212.163 70.6922 212.715 69.7304C213.288 68.7687 214.056 68.0115 215.017 67.459C215.999 66.8861 217.094 66.5996 218.302 66.5996C219.529 66.5996 220.624 66.8861 221.586 67.459C222.548 68.0115 223.305 68.7687 223.857 69.7304C224.41 70.6922 224.686 71.7562 224.686 72.9226C224.686 74.089 224.41 75.153 223.857 76.1148C223.305 77.0765 222.537 77.8439 221.555 78.4168C220.593 78.9693 219.509 79.2456 218.302 79.2456C217.074 79.2456 215.979 78.9795 215.017 78.4475C214.056 77.895 213.288 77.1481 212.715 76.2068C212.163 75.2451 211.887 74.1503 211.887 72.9226ZM213.329 72.9533C213.329 73.8946 213.544 74.754 213.974 75.5316C214.424 76.2887 215.017 76.8923 215.754 77.3425C216.511 77.7927 217.35 78.0178 218.271 78.0178C219.192 78.0178 220.02 77.7927 220.757 77.3425C221.514 76.8923 222.108 76.2887 222.537 75.5316C222.988 74.754 223.213 73.8946 223.213 72.9533C223.213 72.012 222.988 71.1628 222.537 70.4057C222.108 69.6281 221.514 69.0142 220.757 68.564C220.02 68.0934 219.192 67.8581 218.271 67.8581C217.33 67.8581 216.48 68.1036 215.723 68.5947C214.987 69.0654 214.403 69.6895 213.974 70.4671C213.544 71.2446 213.329 72.0734 213.329 72.9533ZM229.767 79V68.3492H227.68V67.0293H229.767V60.9826C229.767 59.0591 230.095 57.6779 230.75 56.8389C231.425 55.9795 232.417 55.5498 233.727 55.5498C234.013 55.5498 234.32 55.5907 234.648 55.6725C234.975 55.7339 235.272 55.8465 235.538 56.0102L234.924 57.0538C234.781 56.9515 234.617 56.8798 234.433 56.8389C234.269 56.7775 234.075 56.7468 233.85 56.7468C232.97 56.7468 232.305 57.0538 231.855 57.6677C231.425 58.2815 231.21 59.3763 231.21 60.9519V67.0293H235.231V68.3492H231.21V79H229.767ZM249.53 61.7193H251.003V67.1521H254.717V68.3185H251.003V79H249.53V68.3185H246.982V67.1521H249.53V61.7193ZM258.315 79V55.6725H259.726V70.1908L259.634 69.669C260.044 68.83 260.698 68.1241 261.599 67.5511C262.52 66.9577 263.573 66.661 264.76 66.661C265.886 66.661 266.796 66.9986 267.492 67.6739C268.188 68.3287 268.546 69.1881 268.566 70.2522V79H267.093V70.6512C267.073 69.8736 266.827 69.2291 266.356 68.7175C265.886 68.2059 265.2 67.9399 264.3 67.9195C263.502 67.9195 262.755 68.1241 262.059 68.5333C261.364 68.9426 260.801 69.4951 260.371 70.1908C259.962 70.8865 259.757 71.6744 259.757 72.5543V79H258.315ZM279.239 79.2456C277.991 79.2456 276.886 78.9693 275.924 78.4168C274.963 77.8643 274.205 77.1174 273.653 76.1762C273.121 75.2144 272.855 74.1401 272.855 72.9533C272.855 71.7869 273.141 70.7228 273.714 69.7611C274.287 68.7994 275.055 68.032 276.016 67.459C276.999 66.8861 278.083 66.5996 279.27 66.5996C280.702 66.5996 281.899 67.0191 282.861 67.8581C283.843 68.697 284.549 69.7918 284.979 71.1423L274.482 75.1939L274.052 74.1503L283.659 70.4057L283.352 70.8354C283.004 70.0169 282.472 69.3109 281.756 68.7175C281.06 68.1241 280.201 67.8274 279.178 67.8274C278.257 67.8274 277.428 68.0525 276.692 68.5026C275.955 68.9528 275.362 69.5565 274.911 70.3136C274.482 71.0707 274.267 71.9301 274.267 72.8919C274.267 73.7922 274.471 74.6312 274.881 75.4088C275.31 76.1864 275.904 76.8105 276.661 77.2811C277.418 77.7518 278.288 77.9871 279.27 77.9871C279.925 77.9871 280.549 77.8643 281.142 77.6188C281.756 77.3732 282.298 77.056 282.769 76.6673L283.506 77.7109C282.933 78.161 282.268 78.5294 281.511 78.8158C280.774 79.1023 280.017 79.2456 279.239 79.2456ZM301.214 79.2456C300.519 79.2456 299.792 79.1228 299.035 78.8772C298.278 78.6112 297.664 78.1917 297.194 77.6188L297.869 76.6673C298.278 77.097 298.759 77.4448 299.311 77.7109C299.884 77.9564 300.488 78.0792 301.122 78.0792C301.593 78.0792 302.033 78.0178 302.442 77.895C302.872 77.7518 303.22 77.5165 303.486 77.1891C303.752 76.8617 303.885 76.4217 303.885 75.8692C303.885 75.2963 303.721 74.8563 303.394 74.5494C303.087 74.2424 302.688 73.9969 302.197 73.8127C301.726 73.6081 301.225 73.4239 300.693 73.2602C299.813 72.9737 299.086 72.585 298.513 72.0938C297.961 71.6027 297.685 70.907 297.685 70.0067C297.685 69.3518 297.838 68.7789 298.145 68.2878C298.472 67.7967 298.912 67.4181 299.465 67.1521C300.017 66.8656 300.642 66.7224 301.337 66.7224C301.972 66.7224 302.596 66.8247 303.21 67.0293C303.844 67.234 304.417 67.5818 304.928 68.0729L304.284 69.0858C303.956 68.6357 303.517 68.3287 302.964 68.165C302.432 68.0013 301.961 67.9092 301.552 67.8888C301.204 67.8888 300.836 67.9604 300.447 68.1036C300.079 68.2469 299.762 68.4617 299.496 68.7482C299.25 69.0142 299.127 69.3723 299.127 69.8225C299.127 70.2931 299.26 70.6819 299.526 70.9889C299.792 71.2753 300.13 71.5107 300.539 71.6948C300.969 71.879 301.409 72.0529 301.859 72.2166C302.452 72.4008 303.005 72.6259 303.517 72.8919C304.049 73.1374 304.478 73.4751 304.806 73.9048C305.154 74.314 305.327 74.8665 305.327 75.5623C305.327 76.258 305.174 76.8923 304.867 77.4653C304.56 78.0178 304.1 78.4577 303.486 78.7851C302.892 79.0921 302.135 79.2456 301.214 79.2456ZM309.691 79V55.6725H311.134V79H309.691ZM313.896 71.2037L319.482 79H317.794L312.883 72.0018L313.896 71.2037ZM310.643 74.6414L310.52 73.1988L317.856 66.7531L318.746 67.5204L310.643 74.6414ZM323.539 66.9986H324.982V79H323.539V66.9986ZM323.232 62.5787C323.232 62.2922 323.345 62.0569 323.57 61.8727C323.795 61.6681 324.041 61.5658 324.307 61.5658C324.593 61.5658 324.839 61.6681 325.043 61.8727C325.248 62.0569 325.35 62.2922 325.35 62.5787C325.35 62.8856 325.248 63.1414 325.043 63.3461C324.839 63.5302 324.593 63.6223 324.307 63.6223C324.041 63.6223 323.795 63.52 323.57 63.3154C323.345 63.1107 323.232 62.8652 323.232 62.5787ZM330.433 55.6725H331.876V79H330.433V55.6725ZM337.328 55.6725H338.77V79H337.328V55.6725ZM347.046 79.2456C346.35 79.2456 345.624 79.1228 344.866 78.8772C344.109 78.6112 343.495 78.1917 343.025 77.6188L343.7 76.6673C344.109 77.097 344.59 77.4448 345.143 77.7109C345.716 77.9564 346.319 78.0792 346.954 78.0792C347.424 78.0792 347.864 78.0178 348.273 77.895C348.703 77.7518 349.051 77.5165 349.317 77.1891C349.583 76.8617 349.716 76.4217 349.716 75.8692C349.716 75.2963 349.552 74.8563 349.225 74.5494C348.918 74.2424 348.519 73.9969 348.028 73.8127C347.557 73.6081 347.056 73.4239 346.524 73.2602C345.644 72.9737 344.918 72.585 344.345 72.0938C343.792 71.6027 343.516 70.907 343.516 70.0067C343.516 69.3518 343.669 68.7789 343.976 68.2878C344.304 67.7967 344.744 67.4181 345.296 67.1521C345.849 66.8656 346.473 66.7224 347.168 66.7224C347.803 66.7224 348.427 66.8247 349.041 67.0293C349.675 67.234 350.248 67.5818 350.76 68.0729L350.115 69.0858C349.788 68.6357 349.348 68.3287 348.795 68.165C348.263 68.0013 347.793 67.9092 347.383 67.8888C347.035 67.8888 346.667 67.9604 346.278 68.1036C345.91 68.2469 345.593 68.4617 345.327 68.7482C345.081 69.0142 344.958 69.3723 344.958 69.8225C344.958 70.2931 345.091 70.6819 345.357 70.9889C345.624 71.2753 345.961 71.5107 346.37 71.6948C346.8 71.879 347.24 72.0529 347.69 72.2166C348.284 72.4008 348.836 72.6259 349.348 72.8919C349.88 73.1374 350.309 73.4751 350.637 73.9048C350.985 74.314 351.159 74.8665 351.159 75.5623C351.159 76.258 351.005 76.8923 350.698 77.4653C350.391 78.0178 349.931 78.4577 349.317 78.7851C348.724 79.0921 347.966 79.2456 347.046 79.2456ZM365.671 57.2072H367.175V79H365.671V57.2072ZM373.817 56.7775C373.796 58.0667 373.776 59.3456 373.755 60.6143C373.735 61.883 373.715 63.1619 373.694 64.451H372.405V56.7775H373.817ZM382.328 79.4604L376.251 66.9986H377.939L382.942 77.895L382.052 77.8643L386.871 66.9986H388.467L382.512 79.4604H382.328ZM397.129 79.2456C395.881 79.2456 394.776 78.9693 393.814 78.4168C392.853 77.8643 392.096 77.1174 391.543 76.1762C391.011 75.2144 390.745 74.1401 390.745 72.9533C390.745 71.7869 391.032 70.7228 391.605 69.7611C392.177 68.7994 392.945 68.032 393.907 67.459C394.889 66.8861 395.973 66.5996 397.16 66.5996C398.593 66.5996 399.79 67.0191 400.751 67.8581C401.734 68.697 402.44 69.7918 402.869 71.1423L392.372 75.1939L391.942 74.1503L401.549 70.4057L401.242 70.8354C400.895 70.0169 400.363 69.3109 399.646 68.7175C398.951 68.1241 398.091 67.8274 397.068 67.8274C396.147 67.8274 395.318 68.0525 394.582 68.5026C393.845 68.9528 393.252 69.5565 392.802 70.3136C392.372 71.0707 392.157 71.9301 392.157 72.8919C392.157 73.7922 392.362 74.6312 392.771 75.4088C393.201 76.1864 393.794 76.8105 394.551 77.2811C395.308 77.7518 396.178 77.9871 397.16 77.9871C397.815 77.9871 398.439 77.8643 399.032 77.6188C399.646 77.3732 400.189 77.056 400.659 76.6673L401.396 77.7109C400.823 78.161 400.158 78.5294 399.401 78.8158C398.664 79.1023 397.907 79.2456 397.129 79.2456ZM421.499 79.2456C420.251 79.2456 419.146 78.9693 418.184 78.4168C417.222 77.8643 416.465 77.1174 415.912 76.1762C415.38 75.2144 415.114 74.1401 415.114 72.9533C415.114 71.7869 415.401 70.7228 415.974 69.7611C416.547 68.7994 417.314 68.032 418.276 67.459C419.258 66.8861 420.343 66.5996 421.529 66.5996C422.962 66.5996 424.159 67.0191 425.121 67.8581C426.103 68.697 426.809 69.7918 427.239 71.1423L416.741 75.1939L416.312 74.1503L425.919 70.4057L425.612 70.8354C425.264 70.0169 424.732 69.3109 424.016 68.7175C423.32 68.1241 422.461 67.8274 421.437 67.8274C420.517 67.8274 419.688 68.0525 418.951 68.5026C418.215 68.9528 417.621 69.5565 417.171 70.3136C416.741 71.0707 416.526 71.9301 416.526 72.8919C416.526 73.7922 416.731 74.6312 417.14 75.4088C417.57 76.1864 418.163 76.8105 418.92 77.2811C419.678 77.7518 420.547 77.9871 421.529 77.9871C422.184 77.9871 422.808 77.8643 423.402 77.6188C424.016 77.3732 424.558 77.056 425.029 76.6673L425.765 77.7109C425.192 78.161 424.527 78.5294 423.77 78.8158C423.033 79.1023 422.276 79.2456 421.499 79.2456ZM436.211 79.2456C435.065 79.2456 434.021 78.9898 433.08 78.4782C432.159 77.9462 431.422 77.2095 430.87 76.2682C430.338 75.3269 430.072 74.2322 430.072 72.984C430.072 71.6539 430.358 70.5182 430.931 69.5769C431.504 68.6152 432.282 67.8888 433.264 67.3977C434.246 66.8861 435.361 66.6303 436.61 66.6303C437.674 66.6303 438.676 66.9475 439.618 67.5818C440.579 68.2162 441.265 69.0142 441.674 69.976L441.459 70.4057L441.643 66.9986H442.933V79H441.49V75.286L441.797 75.8385C441.654 76.2478 441.408 76.657 441.06 77.0663C440.712 77.4551 440.283 77.8234 439.771 78.1713C439.28 78.4987 438.727 78.7647 438.114 78.9693C437.52 79.1535 436.886 79.2456 436.211 79.2456ZM436.518 78.0178C437.418 78.0178 438.226 77.8336 438.942 77.4653C439.679 77.0765 440.272 76.5445 440.723 75.8692C441.173 75.1939 441.429 74.4164 441.49 73.5365V71.8176C441.326 71.0605 440.999 70.3852 440.508 69.7918C440.037 69.1984 439.454 68.7277 438.758 68.3799C438.062 68.032 437.305 67.8581 436.487 67.8581C435.586 67.8581 434.758 68.0729 434.001 68.5026C433.243 68.9119 432.64 69.4951 432.19 70.2522C431.739 71.0093 431.514 71.8995 431.514 72.9226C431.514 73.8639 431.739 74.7233 432.19 75.5009C432.64 76.258 433.243 76.8719 434.001 77.3425C434.778 77.7927 435.617 78.0178 436.518 78.0178ZM449.642 66.9986L449.796 70.6819L449.611 70.2215C449.877 69.4849 450.297 68.8505 450.87 68.3185C451.443 67.7865 452.077 67.3772 452.773 67.0907C453.489 66.8042 454.175 66.661 454.829 66.661L454.768 68.0729C453.847 68.0729 453.008 68.2776 452.251 68.6868C451.514 69.0961 450.921 69.6486 450.471 70.3443C450.041 71.0196 449.826 71.7869 449.826 72.6463V79H448.384V66.9986H449.642ZM460.133 66.9986L460.287 70.774L460.103 70.0373C460.45 68.9938 461.105 68.1752 462.067 67.5818C463.049 66.9679 464.134 66.661 465.321 66.661C466.446 66.661 467.357 66.9986 468.052 67.6739C468.748 68.3287 469.106 69.1881 469.127 70.2522V79H467.653V70.6512C467.633 69.8736 467.387 69.2291 466.917 68.7175C466.446 68.2059 465.76 67.9399 464.86 67.9195C464.062 67.9195 463.315 68.1139 462.619 68.5026C461.924 68.8914 461.361 69.4337 460.931 70.1294C460.522 70.8252 460.317 71.6334 460.317 72.5543V79H458.875V66.9986H460.133ZM479.799 79.2456C478.551 79.2456 477.446 78.9693 476.484 78.4168C475.523 77.8643 474.766 77.1174 474.213 76.1762C473.681 75.2144 473.415 74.1401 473.415 72.9533C473.415 71.7869 473.702 70.7228 474.275 69.7611C474.847 68.7994 475.615 68.032 476.577 67.459C477.559 66.8861 478.643 66.5996 479.83 66.5996C481.263 66.5996 482.46 67.0191 483.421 67.8581C484.404 68.697 485.11 69.7918 485.539 71.1423L475.042 75.1939L474.612 74.1503L484.219 70.4057L483.912 70.8354C483.565 70.0169 483.033 69.3109 482.316 68.7175C481.621 68.1241 480.761 67.8274 479.738 67.8274C478.817 67.8274 477.989 68.0525 477.252 68.5026C476.515 68.9528 475.922 69.5565 475.472 70.3136C475.042 71.0707 474.827 71.9301 474.827 72.8919C474.827 73.7922 475.032 74.6312 475.441 75.4088C475.871 76.1864 476.464 76.8105 477.221 77.2811C477.978 77.7518 478.848 77.9871 479.83 77.9871C480.485 77.9871 481.109 77.8643 481.702 77.6188C482.316 77.3732 482.859 77.056 483.329 76.6673L484.066 77.7109C483.493 78.161 482.828 78.5294 482.071 78.8158C481.334 79.1023 480.577 79.2456 479.799 79.2456ZM494.45 79.2456C493.324 79.2456 492.301 78.9795 491.38 78.4475C490.46 77.895 489.723 77.1379 489.17 76.1762C488.638 75.2144 488.372 74.1299 488.372 72.9226C488.372 71.6334 488.649 70.5182 489.201 69.5769C489.754 68.6357 490.501 67.9092 491.442 67.3977C492.404 66.8861 493.457 66.6303 494.603 66.6303C495.749 66.6303 496.834 66.927 497.857 67.5204C498.9 68.1139 499.658 68.8914 500.128 69.8532L499.883 70.5285V55.6725H501.325V79H499.852V75.3167L500.159 75.992C499.647 76.9537 498.88 77.7415 497.857 78.3554C496.834 78.9488 495.698 79.2456 494.45 79.2456ZM494.818 77.9871C495.739 77.9871 496.568 77.7927 497.304 77.4039C498.041 76.9947 498.634 76.4524 499.085 75.7771C499.535 75.0814 499.791 74.3038 499.852 73.4444V71.9097C499.709 71.1321 499.392 70.4364 498.9 69.8225C498.409 69.2086 497.816 68.7277 497.12 68.3799C496.424 68.0115 495.657 67.8274 494.818 67.8274C493.897 67.8274 493.058 68.0422 492.301 68.472C491.544 68.9017 490.94 69.4951 490.49 70.2522C490.04 71.0093 489.815 71.8892 489.815 72.8919C489.815 73.8332 490.04 74.6926 490.49 75.4702C490.94 76.2273 491.544 76.8412 492.301 77.3118C493.079 77.762 493.918 77.9871 494.818 77.9871ZM508.432 76.3296C507.982 77.3937 507.542 78.4475 507.112 79.4911C506.682 80.5552 506.242 81.6295 505.792 82.714H504.564C504.974 81.6295 505.373 80.5552 505.761 79.4911C506.15 78.4475 506.539 77.3937 506.928 76.3296H508.432ZM527.333 79.2456C526.188 79.2456 525.144 78.9898 524.203 78.4782C523.282 77.9462 522.545 77.2095 521.993 76.2682C521.461 75.3269 521.195 74.2322 521.195 72.984C521.195 71.6539 521.481 70.5182 522.054 69.5769C522.627 68.6152 523.405 67.8888 524.387 67.3977C525.369 66.8861 526.484 66.6303 527.732 66.6303C528.797 66.6303 529.799 66.9475 530.741 67.5818C531.702 68.2162 532.388 69.0142 532.797 69.976L532.582 70.4057L532.766 66.9986H534.055V79H532.613V75.286L532.92 75.8385C532.777 76.2478 532.531 76.657 532.183 77.0663C531.835 77.4551 531.406 77.8234 530.894 78.1713C530.403 78.4987 529.85 78.7647 529.237 78.9693C528.643 79.1535 528.009 79.2456 527.333 79.2456ZM527.64 78.0178C528.541 78.0178 529.349 77.8336 530.065 77.4653C530.802 77.0765 531.395 76.5445 531.845 75.8692C532.296 75.1939 532.551 74.4164 532.613 73.5365V71.8176C532.449 71.0605 532.122 70.3852 531.631 69.7918C531.16 69.1984 530.577 68.7277 529.881 68.3799C529.185 68.032 528.428 67.8581 527.61 67.8581C526.709 67.8581 525.881 68.0729 525.124 68.5026C524.366 68.9119 523.763 69.4951 523.313 70.2522C522.862 71.0093 522.637 71.8995 522.637 72.9226C522.637 73.8639 522.862 74.7233 523.313 75.5009C523.763 76.258 524.366 76.8719 525.124 77.3425C525.901 77.7927 526.74 78.0178 527.64 78.0178ZM540.765 66.9986L540.918 70.774L540.734 70.0373C541.082 68.9938 541.737 68.1752 542.699 67.5818C543.681 66.9679 544.765 66.661 545.952 66.661C547.078 66.661 547.988 66.9986 548.684 67.6739C549.38 68.3287 549.738 69.1881 549.758 70.2522V79H548.285V70.6512C548.265 69.8736 548.019 69.2291 547.548 68.7175C547.078 68.2059 546.392 67.9399 545.492 67.9195C544.694 67.9195 543.947 68.1139 543.251 68.5026C542.555 68.8914 541.993 69.4337 541.563 70.1294C541.154 70.8252 540.949 71.6334 540.949 72.5543V79H539.506V66.9986H540.765ZM560.124 79.2456C558.999 79.2456 557.976 78.9795 557.055 78.4475C556.134 77.895 555.397 77.1379 554.845 76.1762C554.313 75.2144 554.047 74.1299 554.047 72.9226C554.047 71.6334 554.323 70.5182 554.876 69.5769C555.428 68.6357 556.175 67.9092 557.116 67.3977C558.078 66.8861 559.132 66.6303 560.278 66.6303C561.424 66.6303 562.508 66.927 563.531 67.5204C564.575 68.1139 565.332 68.8914 565.803 69.8532L565.557 70.5285V55.6725H567V79H565.526V75.3167L565.833 75.992C565.322 76.9537 564.554 77.7415 563.531 78.3554C562.508 78.9488 561.372 79.2456 560.124 79.2456ZM560.493 77.9871C561.413 77.9871 562.242 77.7927 562.979 77.4039C563.715 76.9947 564.309 76.4524 564.759 75.7771C565.209 75.0814 565.465 74.3038 565.526 73.4444V71.9097C565.383 71.1321 565.066 70.4364 564.575 69.8225C564.084 69.2086 563.49 68.7277 562.795 68.3799C562.099 68.0115 561.332 67.8274 560.493 67.8274C559.572 67.8274 558.733 68.0422 557.976 68.472C557.219 68.9017 556.615 69.4951 556.165 70.2522C555.715 71.0093 555.489 71.8892 555.489 72.8919C555.489 73.8332 555.715 74.6926 556.165 75.4702C556.615 76.2273 557.219 76.8412 557.976 77.3118C558.753 77.762 559.592 77.9871 560.493 77.9871ZM582.597 57.2072H584.101V79H582.597V57.2072ZM590.743 56.7775C590.723 58.0667 590.702 59.3456 590.682 60.6143C590.661 61.883 590.641 63.1619 590.62 64.451H589.331V56.7775H590.743ZM596.308 66.9986L596.461 70.3443L596.247 70.0373C596.656 68.9938 597.331 68.1752 598.272 67.5818C599.234 66.9679 600.278 66.661 601.403 66.661C602.078 66.661 602.682 66.794 603.214 67.06C603.767 67.3056 604.207 67.6534 604.534 68.1036C604.882 68.5333 605.086 69.0347 605.148 69.6076L604.964 69.7918C605.393 68.7687 606.069 67.9911 606.989 67.459C607.91 66.927 608.903 66.661 609.967 66.661C611.113 66.661 612.023 66.9986 612.699 67.6739C613.374 68.3287 613.722 69.1881 613.742 70.2522V79H612.299V70.5591C612.279 69.843 612.054 69.2393 611.624 68.7482C611.195 68.2366 610.54 67.9604 609.66 67.9195C608.862 67.9195 608.125 68.1241 607.45 68.5333C606.775 68.9426 606.222 69.4849 605.792 70.1601C605.383 70.8354 605.158 71.5925 605.117 72.4315V79H603.674V70.5591C603.654 69.843 603.419 69.2393 602.969 68.7482C602.539 68.2366 601.884 67.9604 601.004 67.9195C600.186 67.9195 599.428 68.1241 598.733 68.5333C598.057 68.9426 597.515 69.5053 597.106 70.2215C596.697 70.9172 596.492 71.6948 596.492 72.5543V79H595.049V66.9986H596.308ZM635.251 79.2456C634.105 79.2456 633.031 78.9488 632.028 78.3554C631.025 77.7415 630.289 76.9537 629.818 75.992L630.064 75.4702V84.7705H628.621V66.9066H629.91L630.064 70.8354L629.787 69.9453C630.319 68.9835 631.097 68.1957 632.12 67.5818C633.143 66.9475 634.259 66.6303 635.466 66.6303C636.612 66.6303 637.645 66.9066 638.566 67.459C639.487 68.0115 640.213 68.7687 640.745 69.7304C641.298 70.6717 641.574 71.7562 641.574 72.984C641.574 74.1913 641.287 75.2758 640.714 76.2375C640.162 77.1788 639.405 77.9155 638.443 78.4475C637.502 78.9795 636.438 79.2456 635.251 79.2456ZM635.005 78.0485C635.947 78.0485 636.796 77.8234 637.553 77.3732C638.331 76.923 638.944 76.3194 639.395 75.5623C639.865 74.7847 640.101 73.9253 640.101 72.984C640.101 72.0222 639.876 71.1628 639.425 70.4057C638.975 69.6281 638.372 69.0142 637.614 68.564C636.878 68.1139 636.039 67.8888 635.097 67.8888C634.197 67.8888 633.379 68.0934 632.642 68.5026C631.905 68.9119 631.312 69.4644 630.862 70.1601C630.412 70.8559 630.146 71.6437 630.064 72.5236V73.5058C630.125 74.3447 630.381 75.1121 630.831 75.8078C631.302 76.5036 631.895 77.056 632.611 77.4653C633.348 77.8541 634.146 78.0485 635.005 78.0485ZM650.829 79.2456C649.683 79.2456 648.639 78.9898 647.698 78.4782C646.777 77.9462 646.041 77.2095 645.488 76.2682C644.956 75.3269 644.69 74.2322 644.69 72.984C644.69 71.6539 644.977 70.5182 645.55 69.5769C646.122 68.6152 646.9 67.8888 647.882 67.3977C648.864 66.8861 649.98 66.6303 651.228 66.6303C652.292 66.6303 653.295 66.9475 654.236 67.5818C655.198 68.2162 655.883 69.0142 656.292 69.976L656.078 70.4057L656.262 66.9986H657.551V79H656.108V75.286L656.415 75.8385C656.272 76.2478 656.026 76.657 655.679 77.0663C655.331 77.4551 654.901 77.8234 654.389 78.1713C653.898 78.4987 653.346 78.7647 652.732 78.9693C652.139 79.1535 651.504 79.2456 650.829 79.2456ZM651.136 78.0178C652.036 78.0178 652.844 77.8336 653.561 77.4653C654.297 77.0765 654.891 76.5445 655.341 75.8692C655.791 75.1939 656.047 74.4164 656.108 73.5365V71.8176C655.945 71.0605 655.617 70.3852 655.126 69.7918C654.655 69.1984 654.072 68.7277 653.376 68.3799C652.681 68.032 651.924 67.8581 651.105 67.8581C650.205 67.8581 649.376 68.0729 648.619 68.5026C647.862 68.9119 647.258 69.4951 646.808 70.2522C646.358 71.0093 646.133 71.8995 646.133 72.9226C646.133 73.8639 646.358 74.7233 646.808 75.5009C647.258 76.258 647.862 76.8719 648.619 77.3425C649.397 77.7927 650.235 78.0178 651.136 78.0178ZM665.826 79.2456C665.13 79.2456 664.404 79.1228 663.647 78.8772C662.889 78.6112 662.276 78.1917 661.805 77.6188L662.48 76.6673C662.889 77.097 663.37 77.4448 663.923 77.7109C664.496 77.9564 665.099 78.0792 665.734 78.0792C666.204 78.0792 666.644 78.0178 667.054 77.895C667.483 77.7518 667.831 77.5165 668.097 77.1891C668.363 76.8617 668.496 76.4217 668.496 75.8692C668.496 75.2963 668.332 74.8563 668.005 74.5494C667.698 74.2424 667.299 73.9969 666.808 73.8127C666.337 73.6081 665.836 73.4239 665.304 73.2602C664.424 72.9737 663.698 72.585 663.125 72.0938C662.572 71.6027 662.296 70.907 662.296 70.0067C662.296 69.3518 662.449 68.7789 662.756 68.2878C663.084 67.7967 663.524 67.4181 664.076 67.1521C664.629 66.8656 665.253 66.7224 665.949 66.7224C666.583 66.7224 667.207 66.8247 667.821 67.0293C668.455 67.234 669.028 67.5818 669.54 68.0729L668.895 69.0858C668.568 68.6357 668.128 68.3287 667.575 68.165C667.043 68.0013 666.573 67.9092 666.163 67.8888C665.816 67.8888 665.447 67.9604 665.058 68.1036C664.69 68.2469 664.373 68.4617 664.107 68.7482C663.861 69.0142 663.739 69.3723 663.739 69.8225C663.739 70.2931 663.872 70.6819 664.138 70.9889C664.404 71.2753 664.741 71.5107 665.151 71.6948C665.58 71.879 666.02 72.0529 666.47 72.2166C667.064 72.4008 667.616 72.6259 668.128 72.8919C668.66 73.1374 669.09 73.4751 669.417 73.9048C669.765 74.314 669.939 74.8665 669.939 75.5623C669.939 76.258 669.785 76.8923 669.478 77.4653C669.171 78.0178 668.711 78.4577 668.097 78.7851C667.504 79.0921 666.747 79.2456 665.826 79.2456ZM677.126 79.2456C676.431 79.2456 675.704 79.1228 674.947 78.8772C674.19 78.6112 673.576 78.1917 673.105 77.6188L673.781 76.6673C674.19 77.097 674.671 77.4448 675.223 77.7109C675.796 77.9564 676.4 78.0792 677.034 78.0792C677.505 78.0792 677.945 78.0178 678.354 77.895C678.784 77.7518 679.132 77.5165 679.398 77.1891C679.664 76.8617 679.797 76.4217 679.797 75.8692C679.797 75.2963 679.633 74.8563 679.306 74.5494C678.999 74.2424 678.6 73.9969 678.108 73.8127C677.638 73.6081 677.136 73.4239 676.604 73.2602C675.725 72.9737 674.998 72.585 674.425 72.0938C673.873 71.6027 673.596 70.907 673.596 70.0067C673.596 69.3518 673.75 68.7789 674.057 68.2878C674.384 67.7967 674.824 67.4181 675.377 67.1521C675.929 66.8656 676.553 66.7224 677.249 66.7224C677.883 66.7224 678.507 66.8247 679.121 67.0293C679.756 67.234 680.329 67.5818 680.84 68.0729L680.196 69.0858C679.868 68.6357 679.428 68.3287 678.876 68.165C678.344 68.0013 677.873 67.9092 677.464 67.8888C677.116 67.8888 676.748 67.9604 676.359 68.1036C675.991 68.2469 675.673 68.4617 675.407 68.7482C675.162 69.0142 675.039 69.3723 675.039 69.8225C675.039 70.2931 675.172 70.6819 675.438 70.9889C675.704 71.2753 676.042 71.5107 676.451 71.6948C676.881 71.879 677.321 72.0529 677.771 72.2166C678.364 72.4008 678.917 72.6259 679.428 72.8919C679.96 73.1374 680.39 73.4751 680.717 73.9048C681.065 74.314 681.239 74.8665 681.239 75.5623C681.239 76.258 681.086 76.8923 680.779 77.4653C680.472 78.0178 680.011 78.4577 679.398 78.7851C678.804 79.0921 678.047 79.2456 677.126 79.2456ZM685.603 66.9986H687.045V79H685.603V66.9986ZM685.296 62.5787C685.296 62.2922 685.408 62.0569 685.633 61.8727C685.859 61.6681 686.104 61.5658 686.37 61.5658C686.657 61.5658 686.902 61.6681 687.107 61.8727C687.311 62.0569 687.414 62.2922 687.414 62.5787C687.414 62.8856 687.311 63.1414 687.107 63.3461C686.902 63.5302 686.657 63.6223 686.37 63.6223C686.104 63.6223 685.859 63.52 685.633 63.3154C685.408 63.1107 685.296 62.8652 685.296 62.5787ZM691.331 72.9226C691.331 71.7562 691.607 70.6922 692.159 69.7304C692.732 68.7687 693.5 68.0115 694.461 67.459C695.444 66.8861 696.538 66.5996 697.746 66.5996C698.973 66.5996 700.068 66.8861 701.03 67.459C701.992 68.0115 702.749 68.7687 703.301 69.7304C703.854 70.6922 704.13 71.7562 704.13 72.9226C704.13 74.089 703.854 75.153 703.301 76.1148C702.749 77.0765 701.981 77.8439 700.999 78.4168C700.037 78.9693 698.953 79.2456 697.746 79.2456C696.518 79.2456 695.423 78.9795 694.461 78.4475C693.5 77.895 692.732 77.1481 692.159 76.2068C691.607 75.2451 691.331 74.1503 691.331 72.9226ZM692.773 72.9533C692.773 73.8946 692.988 74.754 693.418 75.5316C693.868 76.2887 694.461 76.8923 695.198 77.3425C695.955 77.7927 696.794 78.0178 697.715 78.0178C698.636 78.0178 699.465 77.7927 700.201 77.3425C700.958 76.8923 701.552 76.2887 701.981 75.5316C702.432 74.754 702.657 73.8946 702.657 72.9533C702.657 72.012 702.432 71.1628 701.981 70.4057C701.552 69.6281 700.958 69.0142 700.201 68.564C699.465 68.0934 698.636 67.8581 697.715 67.8581C696.774 67.8581 695.924 68.1036 695.167 68.5947C694.431 69.0654 693.848 69.6895 693.418 70.4671C692.988 71.2446 692.773 72.0734 692.773 72.9533ZM709.672 66.9986L709.825 70.774L709.641 70.0373C709.989 68.9938 710.644 68.1752 711.606 67.5818C712.588 66.9679 713.672 66.661 714.859 66.661C715.985 66.661 716.895 66.9986 717.591 67.6739C718.287 68.3287 718.645 69.1881 718.665 70.2522V79H717.192V70.6512C717.172 69.8736 716.926 69.2291 716.455 68.7175C715.985 68.2059 715.299 67.9399 714.399 67.9195C713.601 67.9195 712.854 68.1139 712.158 68.5026C711.462 68.8914 710.9 69.4337 710.47 70.1294C710.061 70.8252 709.856 71.6334 709.856 72.5543V79H708.414V66.9986H709.672ZM729.093 79.2456C727.947 79.2456 726.903 78.9898 725.962 78.4782C725.041 77.9462 724.304 77.2095 723.752 76.2682C723.22 75.3269 722.954 74.2322 722.954 72.984C722.954 71.6539 723.24 70.5182 723.813 69.5769C724.386 68.6152 725.164 67.8888 726.146 67.3977C727.128 66.8861 728.243 66.6303 729.492 66.6303C730.556 66.6303 731.558 66.9475 732.5 67.5818C733.461 68.2162 734.147 69.0142 734.556 69.976L734.341 70.4057L734.525 66.9986H735.815V79H734.372V75.286L734.679 75.8385C734.536 76.2478 734.29 76.657 733.942 77.0663C733.594 77.4551 733.165 77.8234 732.653 78.1713C732.162 78.4987 731.61 78.7647 730.996 78.9693C730.402 79.1535 729.768 79.2456 729.093 79.2456ZM729.4 78.0178C730.3 78.0178 731.108 77.8336 731.824 77.4653C732.561 77.0765 733.154 76.5445 733.605 75.8692C734.055 75.1939 734.311 74.4164 734.372 73.5365V71.8176C734.208 71.0605 733.881 70.3852 733.39 69.7918C732.919 69.1984 732.336 68.7277 731.64 68.3799C730.944 68.032 730.187 67.8581 729.369 67.8581C728.469 67.8581 727.64 68.0729 726.883 68.5026C726.126 68.9119 725.522 69.4951 725.072 70.2522C724.622 71.0093 724.396 71.8995 724.396 72.9226C724.396 73.8639 724.622 74.7233 725.072 75.5009C725.522 76.258 726.126 76.8719 726.883 77.3425C727.66 77.7927 728.499 78.0178 729.4 78.0178ZM742.463 61.7193H743.936V67.1521H747.65V68.3185H743.936V79H742.463V68.3185H739.915V67.1521H742.463V61.7193ZM756.465 79.2456C755.217 79.2456 754.112 78.9693 753.15 78.4168C752.189 77.8643 751.431 77.1174 750.879 76.1762C750.347 75.2144 750.081 74.1401 750.081 72.9533C750.081 71.7869 750.367 70.7228 750.94 69.7611C751.513 68.7994 752.281 68.032 753.242 67.459C754.225 66.8861 755.309 66.5996 756.496 66.5996C757.928 66.5996 759.125 67.0191 760.087 67.8581C761.069 68.697 761.775 69.7918 762.205 71.1423L751.708 75.1939L751.278 74.1503L760.885 70.4057L760.578 70.8354C760.23 70.0169 759.698 69.3109 758.982 68.7175C758.286 68.1241 757.427 67.8274 756.404 67.8274C755.483 67.8274 754.654 68.0525 753.918 68.5026C753.181 68.9528 752.588 69.5565 752.137 70.3136C751.708 71.0707 751.493 71.9301 751.493 72.8919C751.493 73.7922 751.697 74.6312 752.107 75.4088C752.536 76.1864 753.13 76.8105 753.887 77.2811C754.644 77.7518 755.514 77.9871 756.496 77.9871C757.151 77.9871 757.775 77.8643 758.368 77.6188C758.982 77.3732 759.524 77.056 759.995 76.6673L760.732 77.7109C760.159 78.161 759.494 78.5294 758.737 78.8158C758 79.1023 757.243 79.2456 756.465 79.2456ZM780.589 79.2456C779.443 79.2456 778.4 78.9898 777.458 78.4782C776.537 77.9462 775.801 77.2095 775.248 76.2682C774.716 75.3269 774.45 74.2322 774.45 72.984C774.45 71.6539 774.737 70.5182 775.31 69.5769C775.883 68.6152 776.66 67.8888 777.642 67.3977C778.625 66.8861 779.74 66.6303 780.988 66.6303C782.052 66.6303 783.055 66.9475 783.996 67.5818C784.958 68.2162 785.643 69.0142 786.053 69.976L785.838 70.4057L786.022 66.9986H787.311V79H785.868V75.286L786.175 75.8385C786.032 76.2478 785.787 76.657 785.439 77.0663C785.091 77.4551 784.661 77.8234 784.15 78.1713C783.658 78.4987 783.106 78.7647 782.492 78.9693C781.899 79.1535 781.264 79.2456 780.589 79.2456ZM780.896 78.0178C781.796 78.0178 782.605 77.8336 783.321 77.4653C784.057 77.0765 784.651 76.5445 785.101 75.8692C785.551 75.1939 785.807 74.4164 785.868 73.5365V71.8176C785.705 71.0605 785.377 70.3852 784.886 69.7918C784.416 69.1984 783.832 68.7277 783.137 68.3799C782.441 68.032 781.684 67.8581 780.865 67.8581C779.965 67.8581 779.136 68.0729 778.379 68.5026C777.622 68.9119 777.018 69.4951 776.568 70.2522C776.118 71.0093 775.893 71.8995 775.893 72.9226C775.893 73.8639 776.118 74.7233 776.568 75.5009C777.018 76.258 777.622 76.8719 778.379 77.3425C779.157 77.7927 779.996 78.0178 780.896 78.0178ZM799.484 79.2456C798.256 79.2456 797.131 78.9284 796.108 78.294C795.105 77.6597 794.368 76.8617 793.898 75.8999L794.205 75.0712V79H792.762V55.6725H794.205V70.5285L794.021 69.7304C794.491 68.7891 795.238 68.0422 796.261 67.4897C797.284 66.9168 798.41 66.6303 799.638 66.6303C800.763 66.6303 801.786 66.9066 802.707 67.459C803.628 67.9911 804.354 68.7277 804.886 69.669C805.439 70.6103 805.715 71.6846 805.715 72.8919C805.715 74.2424 805.428 75.3986 804.856 76.3603C804.283 77.3016 803.525 78.0178 802.584 78.5089C801.643 79 800.61 79.2456 799.484 79.2456ZM799.239 77.9871C800.262 77.9871 801.142 77.7722 801.878 77.3425C802.635 76.8923 803.219 76.2887 803.628 75.5316C804.037 74.754 804.242 73.8741 804.242 72.8919C804.242 71.9711 804.027 71.1321 803.597 70.375C803.188 69.5974 802.605 68.9835 801.848 68.5333C801.111 68.0627 800.241 67.8274 799.239 67.8274C798.4 67.8274 797.622 68.0013 796.906 68.3492C796.21 68.697 795.627 69.1677 795.156 69.7611C794.686 70.3545 794.368 71.04 794.205 71.8176V73.6899C794.287 74.4471 794.553 75.153 795.003 75.8078C795.453 76.4626 796.046 76.9947 796.783 77.4039C797.52 77.7927 798.338 77.9871 799.239 77.9871ZM808.831 72.9226C808.831 71.7562 809.107 70.6922 809.66 69.7304C810.233 68.7687 811 68.0115 811.962 67.459C812.944 66.8861 814.039 66.5996 815.246 66.5996C816.474 66.5996 817.569 66.8861 818.53 67.459C819.492 68.0115 820.249 68.7687 820.802 69.7304C821.354 70.6922 821.631 71.7562 821.631 72.9226C821.631 74.089 821.354 75.153 820.802 76.1148C820.249 77.0765 819.482 77.8439 818.5 78.4168C817.538 78.9693 816.453 79.2456 815.246 79.2456C814.018 79.2456 812.924 78.9795 811.962 78.4475C811 77.895 810.233 77.1481 809.66 76.2068C809.107 75.2451 808.831 74.1503 808.831 72.9226ZM810.274 72.9533C810.274 73.8946 810.489 74.754 810.918 75.5316C811.369 76.2887 811.962 76.8923 812.699 77.3425C813.456 77.7927 814.295 78.0178 815.215 78.0178C816.136 78.0178 816.965 77.7927 817.702 77.3425C818.459 76.8923 819.052 76.2887 819.482 75.5316C819.932 74.754 820.157 73.8946 820.157 72.9533C820.157 72.012 819.932 71.1628 819.482 70.4057C819.052 69.6281 818.459 69.0142 817.702 68.564C816.965 68.0934 816.136 67.8581 815.215 67.8581C814.274 67.8581 813.425 68.1036 812.668 68.5947C811.931 69.0654 811.348 69.6895 810.918 70.4671C810.489 71.2446 810.274 72.0734 810.274 72.9533ZM829.689 79.3376C828.564 79.3376 827.664 79.0102 826.988 78.3554C826.313 77.6802 825.955 76.8105 825.914 75.7464V66.9986H827.357V75.3167C827.398 76.0943 827.643 76.7389 828.093 77.2504C828.564 77.762 829.26 78.0383 830.18 78.0792C830.958 78.0792 831.684 77.8746 832.36 77.4653C833.035 77.056 833.577 76.5036 833.987 75.8078C834.416 75.0916 834.631 74.2834 834.631 73.383V66.9986H836.074V79H834.785L834.631 75.2246L834.846 76.0534C834.641 76.6673 834.273 77.23 833.741 77.7415C833.229 78.2326 832.616 78.6214 831.899 78.9079C831.204 79.1944 830.467 79.3376 829.689 79.3376ZM842.728 61.7193H844.201V67.1521H847.915V68.3185H844.201V79H842.728V68.3185H840.18V67.1521H842.728V61.7193ZM4.55562 110.246C3.85989 110.246 3.13346 110.123 2.37634 109.877C1.61922 109.611 1.00534 109.192 0.534701 108.619L1.20997 107.667C1.61922 108.097 2.1001 108.445 2.65259 108.711C3.22554 108.956 3.82919 109.079 4.46353 109.079C4.93418 109.079 5.37412 109.018 5.78338 108.895C6.21309 108.752 6.56096 108.516 6.82697 108.189C7.09299 107.862 7.226 107.422 7.226 106.869C7.226 106.296 7.06229 105.856 6.73489 105.549C6.42795 105.242 6.02893 104.997 5.53783 104.813C5.06718 104.608 4.56585 104.424 4.03382 104.26C3.15392 103.974 2.4275 103.585 1.85454 103.094C1.30205 102.603 1.02581 101.907 1.02581 101.007C1.02581 100.352 1.17928 99.7789 1.48622 99.2878C1.81362 98.7967 2.25357 98.4181 2.80606 98.1521C3.35855 97.8656 3.98266 97.7224 4.67839 97.7224C5.31274 97.7224 5.93685 97.8247 6.55073 98.0293C7.18507 98.234 7.75803 98.5818 8.26959 99.0729L7.62502 100.086C7.29762 99.6357 6.85767 99.3287 6.30518 99.165C5.77315 99.0013 5.3025 98.9092 4.89325 98.8888C4.54539 98.8888 4.17706 98.9604 3.78827 99.1036C3.41994 99.2469 3.10277 99.4617 2.83675 99.7482C2.5912 100.014 2.46842 100.372 2.46842 100.822C2.46842 101.293 2.60143 101.682 2.86745 101.989C3.13346 102.275 3.4711 102.511 3.88035 102.695C4.31006 102.879 4.75001 103.053 5.20019 103.217C5.79361 103.401 6.3461 103.626 6.85767 103.892C7.3897 104.137 7.81941 104.475 8.14682 104.905C8.49468 105.314 8.66862 105.867 8.66862 106.562C8.66862 107.258 8.51515 107.892 8.20821 108.465C7.90127 109.018 7.44086 109.458 6.82697 109.785C6.23356 110.092 5.47644 110.246 4.55562 110.246ZM13.0322 110V86.6725H14.4441V101.191L14.352 100.669C14.7613 99.83 15.4161 99.1241 16.3165 98.5511C17.2373 97.9577 18.2911 97.661 19.4779 97.661C20.6034 97.661 21.514 97.9986 22.2097 98.6739C22.9054 99.3287 23.2635 100.188 23.284 101.252V110H21.8107V101.651C21.7902 100.874 21.5447 100.229 21.074 99.7175C20.6034 99.2059 19.9179 98.9399 19.0175 98.9195C18.2195 98.9195 17.4726 99.1241 16.7769 99.5333C16.0811 99.9426 15.5184 100.495 15.0887 101.191C14.6794 101.887 14.4748 102.674 14.4748 103.554V110H13.0322ZM27.5725 103.923C27.5725 102.756 27.8488 101.692 28.4013 100.73C28.9742 99.7687 29.7416 99.0115 30.7033 98.459C31.6855 97.8861 32.7803 97.5996 33.9876 97.5996C35.2153 97.5996 36.3101 97.8861 37.2718 98.459C38.2336 99.0115 38.9907 99.7687 39.5432 100.73C40.0957 101.692 40.3719 102.756 40.3719 103.923C40.3719 105.089 40.0957 106.153 39.5432 107.115C38.9907 108.077 38.2234 108.844 37.2411 109.417C36.2794 109.969 35.1949 110.246 33.9876 110.246C32.7598 110.246 31.6651 109.98 30.7033 109.448C29.7416 108.895 28.9742 108.148 28.4013 107.207C27.8488 106.245 27.5725 105.15 27.5725 103.923ZM29.0152 103.953C29.0152 104.895 29.23 105.754 29.6597 106.532C30.1099 107.289 30.7033 107.892 31.44 108.343C32.1971 108.793 33.0361 109.018 33.9569 109.018C34.8777 109.018 35.7064 108.793 36.4431 108.343C37.2002 107.892 37.7936 107.289 38.2234 106.532C38.6735 105.754 38.8986 104.895 38.8986 103.953C38.8986 103.012 38.6735 102.163 38.2234 101.406C37.7936 100.628 37.2002 100.014 36.4431 99.564C35.7064 99.0934 34.8777 98.8581 33.9569 98.8581C33.0156 98.8581 32.1664 99.1036 31.4093 99.5947C30.6726 100.065 30.0894 100.689 29.6597 101.467C29.23 102.245 29.0152 103.073 29.0152 103.953ZM51.0784 97.9986L55.6211 108.22L55.2835 108.25L59.6727 97.9986H61.146L55.4983 110.737L51.6309 102.204L48.1011 110.737L42.4534 97.9986H43.896L48.5308 108.435L48.009 108.281L51.0784 100.853L49.7585 97.9986H51.0784ZM73.8581 108.834C73.3057 109.284 72.6815 109.632 71.9858 109.877C71.2901 110.123 70.5637 110.246 69.8065 110.246C68.5788 110.246 67.484 109.98 66.5223 109.448C65.5605 108.895 64.8034 108.148 64.2509 107.207C63.6984 106.266 63.4222 105.191 63.4222 103.984C63.4222 102.777 63.7087 101.702 64.2816 100.761C64.8546 99.8198 65.6117 99.0832 66.553 98.5511C67.5147 97.9986 68.5583 97.7224 69.6838 97.7224C70.5227 97.7224 71.3003 97.8452 72.0165 98.0907C72.7327 98.3363 73.3568 98.6841 73.8888 99.1343L73.1215 100.117C72.6918 99.7687 72.1904 99.4822 71.6175 99.2571C71.0445 99.032 70.4307 98.9195 69.7758 98.9195C68.8755 98.9195 68.0467 99.1445 67.2896 99.5947C66.553 100.045 65.9596 100.659 65.5094 101.436C65.0797 102.193 64.8648 103.043 64.8648 103.984C64.8648 104.905 65.0797 105.754 65.5094 106.532C65.9596 107.289 66.5632 107.892 67.3203 108.343C68.0979 108.793 68.9573 109.018 69.8986 109.018C70.5125 109.018 71.0855 108.926 71.6175 108.742C72.1495 108.537 72.6304 108.271 73.0601 107.944L73.8581 108.834ZM82.8397 110.246C81.6938 110.246 80.6502 109.99 79.709 109.478C78.7881 108.946 78.0515 108.21 77.499 107.268C76.967 106.327 76.7009 105.232 76.7009 103.984C76.7009 102.654 76.9874 101.518 77.5604 100.577C78.1333 99.6152 78.9109 98.8888 79.8931 98.3977C80.8753 97.8861 81.9905 97.6303 83.2388 97.6303C84.3028 97.6303 85.3055 97.9475 86.2468 98.5818C87.2085 99.2162 87.894 100.014 88.3033 100.976L88.0884 101.406L88.2726 97.9986H89.5617V110H88.1191V106.286L88.4261 106.839C88.2828 107.248 88.0373 107.657 87.6894 108.066C87.3415 108.455 86.9118 108.823 86.4002 109.171C85.9091 109.499 85.3567 109.765 84.7428 109.969C84.1494 110.153 83.515 110.246 82.8397 110.246ZM83.1467 109.018C84.047 109.018 84.8553 108.834 85.5715 108.465C86.3082 108.077 86.9016 107.544 87.3518 106.869C87.8019 106.194 88.0577 105.416 88.1191 104.536V102.818C87.9554 102.06 87.628 101.385 87.1369 100.792C86.6663 100.198 86.0831 99.7277 85.3873 99.3799C84.6916 99.032 83.9345 98.8581 83.116 98.8581C82.2156 98.8581 81.3869 99.0729 80.6298 99.5026C79.8727 99.9119 79.269 100.495 78.8188 101.252C78.3686 102.009 78.1436 102.899 78.1436 103.923C78.1436 104.864 78.3686 105.723 78.8188 106.501C79.269 107.258 79.8727 107.872 80.6298 108.343C81.4074 108.793 82.2463 109.018 83.1467 109.018ZM97.8366 110.246C97.1409 110.246 96.4145 110.123 95.6574 109.877C94.9003 109.611 94.2864 109.192 93.8157 108.619L94.491 107.667C94.9003 108.097 95.3811 108.445 95.9336 108.711C96.5066 108.956 97.1102 109.079 97.7446 109.079C98.2152 109.079 98.6552 109.018 99.0644 108.895C99.4941 108.752 99.842 108.516 100.108 108.189C100.374 107.862 100.507 107.422 100.507 106.869C100.507 106.296 100.343 105.856 100.016 105.549C99.709 105.242 99.31 104.997 98.8189 104.813C98.3482 104.608 97.8469 104.424 97.3148 104.26C96.435 103.974 95.7085 103.585 95.1356 103.094C94.5831 102.603 94.3068 101.907 94.3068 101.007C94.3068 100.352 94.4603 99.7789 94.7672 99.2878C95.0946 98.7967 95.5346 98.4181 96.0871 98.1521C96.6396 97.8656 97.2637 97.7224 97.9594 97.7224C98.5938 97.7224 99.2179 97.8247 99.8318 98.0293C100.466 98.234 101.039 98.5818 101.551 99.0729L100.906 100.086C100.579 99.6357 100.139 99.3287 99.5862 99.165C99.0542 99.0013 98.5835 98.9092 98.1743 98.8888C97.8264 98.8888 97.4581 98.9604 97.0693 99.1036C96.701 99.2469 96.3838 99.4617 96.1178 99.7482C95.8722 100.014 95.7495 100.372 95.7495 100.822C95.7495 101.293 95.8825 101.682 96.1485 101.989C96.4145 102.275 96.7521 102.511 97.1614 102.695C97.5911 102.879 98.031 103.053 98.4812 103.217C99.0746 103.401 99.6271 103.626 100.139 103.892C100.671 104.137 101.1 104.475 101.428 104.905C101.776 105.314 101.95 105.867 101.95 106.562C101.95 107.258 101.796 107.892 101.489 108.465C101.182 109.018 100.722 109.458 100.108 109.785C99.5146 110.092 98.7575 110.246 97.8366 110.246ZM106.313 97.9986H107.756V110H106.313V97.9986ZM106.006 93.5787C106.006 93.2922 106.119 93.0569 106.344 92.8727C106.569 92.6681 106.815 92.5658 107.081 92.5658C107.367 92.5658 107.613 92.6681 107.817 92.8727C108.022 93.0569 108.124 93.2922 108.124 93.5787C108.124 93.8856 108.022 94.1414 107.817 94.3461C107.613 94.5302 107.367 94.6223 107.081 94.6223C106.815 94.6223 106.569 94.52 106.344 94.3154C106.119 94.1107 106.006 93.8652 106.006 93.5787ZM114.466 97.9986L114.619 101.774L114.435 101.037C114.783 99.9938 115.438 99.1752 116.4 98.5818C117.382 97.9679 118.466 97.661 119.653 97.661C120.779 97.661 121.689 97.9986 122.385 98.6739C123.081 99.3287 123.439 100.188 123.459 101.252V110H121.986V101.651C121.965 100.874 121.72 100.229 121.249 99.7175C120.779 99.2059 120.093 98.9399 119.193 98.9195C118.395 98.9195 117.648 99.1139 116.952 99.5026C116.256 99.8914 115.694 100.434 115.264 101.129C114.855 101.825 114.65 102.633 114.65 103.554V110H113.207V97.9986H114.466ZM134.255 115.863C133.58 115.863 132.935 115.781 132.321 115.617C131.707 115.474 131.104 115.218 130.51 114.85C129.917 114.481 129.303 114 128.669 113.407L129.528 112.425C130.408 113.264 131.226 113.827 131.983 114.113C132.741 114.42 133.477 114.573 134.193 114.573C135.442 114.573 136.434 114.369 137.171 113.96C137.907 113.571 138.439 113.039 138.767 112.363C139.094 111.709 139.268 110.972 139.289 110.153L139.319 106.255L139.657 106.624C139.248 107.688 138.511 108.557 137.447 109.233C136.403 109.908 135.217 110.246 133.887 110.246C132.761 110.246 131.728 109.969 130.786 109.417C129.866 108.844 129.129 108.087 128.576 107.145C128.024 106.184 127.748 105.12 127.748 103.953C127.748 102.705 128.034 101.61 128.607 100.669C129.18 99.7277 129.958 98.9911 130.94 98.459C131.922 97.9066 133.007 97.6303 134.193 97.6303C135.298 97.6303 136.342 97.9168 137.324 98.4897C138.327 99.0627 139.053 99.8198 139.504 100.761L139.319 101.436L139.473 97.9986H140.762V110.184C140.762 111.166 140.537 112.087 140.087 112.947C139.657 113.827 138.961 114.532 138 115.065C137.058 115.597 135.81 115.863 134.255 115.863ZM129.19 103.923C129.19 104.864 129.415 105.723 129.866 106.501C130.316 107.258 130.919 107.872 131.677 108.343C132.454 108.793 133.314 109.018 134.255 109.018C135.155 109.018 135.974 108.823 136.71 108.435C137.447 108.025 138.051 107.483 138.521 106.808C138.992 106.133 139.258 105.406 139.319 104.629V102.848C139.156 102.071 138.828 101.385 138.337 100.792C137.867 100.198 137.273 99.7277 136.557 99.3799C135.861 99.032 135.094 98.8581 134.255 98.8581C133.314 98.8581 132.454 99.0729 131.677 99.5026C130.919 99.9324 130.316 100.526 129.866 101.283C129.415 102.04 129.19 102.92 129.19 103.923ZM156.849 92.7193H158.322V98.1521H162.036V99.3185H158.322V110H156.849V99.3185H154.301V98.1521H156.849V92.7193ZM165.633 110V86.6725H167.045V101.191L166.953 100.669C167.362 99.83 168.017 99.1241 168.917 98.5511C169.838 97.9577 170.892 97.661 172.079 97.661C173.204 97.661 174.115 97.9986 174.811 98.6739C175.506 99.3287 175.864 100.188 175.885 101.252V110H174.412V101.651C174.391 100.874 174.145 100.229 173.675 99.7175C173.204 99.2059 172.519 98.9399 171.618 98.9195C170.82 98.9195 170.073 99.1241 169.378 99.5333C168.682 99.9426 168.119 100.495 167.69 101.191C167.28 101.887 167.076 102.674 167.076 103.554V110H165.633ZM186.558 110.246C185.309 110.246 184.204 109.969 183.243 109.417C182.281 108.864 181.524 108.117 180.971 107.176C180.439 106.214 180.173 105.14 180.173 103.953C180.173 102.787 180.46 101.723 181.033 100.761C181.606 99.7994 182.373 99.032 183.335 98.459C184.317 97.8861 185.402 97.5996 186.588 97.5996C188.021 97.5996 189.218 98.0191 190.18 98.8581C191.162 99.697 191.868 100.792 192.297 102.142L181.8 106.194L181.37 105.15L190.978 101.406L190.671 101.835C190.323 101.017 189.791 100.311 189.075 99.7175C188.379 99.1241 187.519 98.8274 186.496 98.8274C185.575 98.8274 184.747 99.0525 184.01 99.5026C183.273 99.9528 182.68 100.556 182.23 101.314C181.8 102.071 181.585 102.93 181.585 103.892C181.585 104.792 181.79 105.631 182.199 106.409C182.629 107.186 183.222 107.81 183.979 108.281C184.737 108.752 185.606 108.987 186.588 108.987C187.243 108.987 187.867 108.864 188.461 108.619C189.075 108.373 189.617 108.056 190.088 107.667L190.824 108.711C190.251 109.161 189.586 109.529 188.829 109.816C188.092 110.102 187.335 110.246 186.558 110.246ZM197.556 97.9986L197.709 101.344L197.494 101.037C197.903 99.9938 198.579 99.1752 199.52 98.5818C200.482 97.9679 201.525 97.661 202.651 97.661C203.326 97.661 203.93 97.794 204.462 98.06C205.014 98.3056 205.454 98.6534 205.782 99.1036C206.129 99.5333 206.334 100.035 206.395 100.608L206.211 100.792C206.641 99.7687 207.316 98.9911 208.237 98.459C209.158 97.927 210.15 97.661 211.214 97.661C212.36 97.661 213.271 97.9986 213.946 98.6739C214.621 99.3287 214.969 100.188 214.99 101.252V110H213.547V101.559C213.527 100.843 213.302 100.239 212.872 99.7482C212.442 99.2366 211.787 98.9604 210.907 98.9195C210.109 98.9195 209.373 99.1241 208.697 99.5333C208.022 99.9426 207.47 100.485 207.04 101.16C206.631 101.835 206.406 102.593 206.365 103.431V110H204.922V101.559C204.902 100.843 204.666 100.239 204.216 99.7482C203.786 99.2366 203.132 98.9604 202.252 98.9195C201.433 98.9195 200.676 99.1241 199.98 99.5333C199.305 99.9426 198.763 100.505 198.354 101.222C197.944 101.917 197.74 102.695 197.74 103.554V110H196.297V97.9986H197.556ZM231.066 92.7193H232.539V98.1521H236.253V99.3185H232.539V110H231.066V99.3185H228.518V98.1521H231.066V92.7193ZM238.684 103.923C238.684 102.756 238.96 101.692 239.513 100.73C240.086 99.7687 240.853 99.0115 241.815 98.459C242.797 97.8861 243.892 97.5996 245.099 97.5996C246.327 97.5996 247.421 97.8861 248.383 98.459C249.345 99.0115 250.102 99.7687 250.654 100.73C251.207 101.692 251.483 102.756 251.483 103.923C251.483 105.089 251.207 106.153 250.654 107.115C250.102 108.077 249.335 108.844 248.352 109.417C247.391 109.969 246.306 110.246 245.099 110.246C243.871 110.246 242.776 109.98 241.815 109.448C240.853 108.895 240.086 108.148 239.513 107.207C238.96 106.245 238.684 105.15 238.684 103.923ZM240.126 103.953C240.126 104.895 240.341 105.754 240.771 106.532C241.221 107.289 241.815 107.892 242.551 108.343C243.308 108.793 244.147 109.018 245.068 109.018C245.989 109.018 246.818 108.793 247.554 108.343C248.312 107.892 248.905 107.289 249.335 106.532C249.785 105.754 250.01 104.895 250.01 103.953C250.01 103.012 249.785 102.163 249.335 101.406C248.905 100.628 248.312 100.014 247.554 99.564C246.818 99.0934 245.989 98.8581 245.068 98.8581C244.127 98.8581 243.278 99.1036 242.521 99.5947C241.784 100.065 241.201 100.689 240.771 101.467C240.341 102.245 240.126 103.073 240.126 103.953ZM266.284 115.77L274.111 97.9986H275.523L267.788 115.77H266.284ZM268.985 110.123L263.306 97.9986H264.933L270.12 109.355L268.985 110.123ZM277.771 103.923C277.771 102.756 278.047 101.692 278.599 100.73C279.172 99.7687 279.94 99.0115 280.902 98.459C281.884 97.8861 282.978 97.5996 284.186 97.5996C285.414 97.5996 286.508 97.8861 287.47 98.459C288.432 99.0115 289.189 99.7687 289.741 100.73C290.294 101.692 290.57 102.756 290.57 103.923C290.57 105.089 290.294 106.153 289.741 107.115C289.189 108.077 288.422 108.844 287.439 109.417C286.478 109.969 285.393 110.246 284.186 110.246C282.958 110.246 281.863 109.98 280.902 109.448C279.94 108.895 279.172 108.148 278.599 107.207C278.047 106.245 277.771 105.15 277.771 103.923ZM279.213 103.953C279.213 104.895 279.428 105.754 279.858 106.532C280.308 107.289 280.902 107.892 281.638 108.343C282.395 108.793 283.234 109.018 284.155 109.018C285.076 109.018 285.905 108.793 286.641 108.343C287.398 107.892 287.992 107.289 288.422 106.532C288.872 105.754 289.097 104.895 289.097 103.953C289.097 103.012 288.872 102.163 288.422 101.406C287.992 100.628 287.398 100.014 286.641 99.564C285.905 99.0934 285.076 98.8581 284.155 98.8581C283.214 98.8581 282.365 99.1036 281.607 99.5947C280.871 100.065 280.288 100.689 279.858 101.467C279.428 102.245 279.213 103.073 279.213 103.953ZM298.629 110.338C297.504 110.338 296.603 110.01 295.928 109.355C295.253 108.68 294.895 107.81 294.854 106.746V97.9986H296.296V106.317C296.337 107.094 296.583 107.739 297.033 108.25C297.504 108.762 298.199 109.038 299.12 109.079C299.898 109.079 300.624 108.875 301.299 108.465C301.975 108.056 302.517 107.504 302.926 106.808C303.356 106.092 303.571 105.283 303.571 104.383V97.9986H305.013V110H303.724L303.571 106.225L303.786 107.053C303.581 107.667 303.213 108.23 302.681 108.742C302.169 109.233 301.555 109.621 300.839 109.908C300.143 110.194 299.407 110.338 298.629 110.338ZM309.365 108.956C309.365 108.67 309.468 108.424 309.672 108.22C309.877 108.015 310.112 107.913 310.378 107.913C310.644 107.913 310.88 108.015 311.084 108.22C311.309 108.424 311.422 108.67 311.422 108.956C311.422 109.263 311.309 109.519 311.084 109.724C310.88 109.908 310.644 110 310.378 110C310.112 110 309.877 109.908 309.672 109.724C309.468 109.519 309.365 109.263 309.365 108.956Z" fill="white"/>
<rect width="825" height="10" transform="matrix(1 0 0 -1 0 10)" fill="white"/>
<rect width="385" height="10" transform="matrix(1 0 0 -1 0 190)" fill="white"/>
</svg>
